<mxfile host="app.diagrams.net" agent="Mozilla/5.0 (Macintosh; Intel Mac OS X 10_15_7) AppleWebKit/605.1.15 (KHTML, like Gecko) Version/17.4.1 Safari/605.1.15" version="24.7.16">
  <diagram name="Page-1" id="BYGVsKO8JRrNuMayK8M1">
    <mxGraphModel dx="1565" dy="1046" grid="1" gridSize="10" guides="1" tooltips="1" connect="1" arrows="1" fold="1" page="1" pageScale="1" pageWidth="827" pageHeight="1169" math="0" shadow="0">
      <root>
        <mxCell id="0" />
        <mxCell id="1" parent="0" />
        <mxCell id="5eZM8RQ2rSXLFRQFqwjH-5" style="edgeStyle=orthogonalEdgeStyle;rounded=0;orthogonalLoop=1;jettySize=auto;html=1;" edge="1" parent="1" source="5eZM8RQ2rSXLFRQFqwjH-1" target="5eZM8RQ2rSXLFRQFqwjH-2">
          <mxGeometry relative="1" as="geometry" />
        </mxCell>
        <object label="An English sentence" label_de="Ein Satz auf Deutsch" label_jp="英語の文章" label_es="Una frase en español" id="5eZM8RQ2rSXLFRQFqwjH-1">
          <mxCell style="rounded=1;whiteSpace=wrap;html=1;fillColor=#dae8fc;strokeColor=#6c8ebf;" vertex="1" parent="1">
            <mxGeometry x="350" y="480" width="120" height="60" as="geometry" />
          </mxCell>
        </object>
        <mxCell id="5eZM8RQ2rSXLFRQFqwjH-6" style="edgeStyle=orthogonalEdgeStyle;rounded=0;orthogonalLoop=1;jettySize=auto;html=1;" edge="1" parent="1" source="5eZM8RQ2rSXLFRQFqwjH-2" target="5eZM8RQ2rSXLFRQFqwjH-3">
          <mxGeometry relative="1" as="geometry" />
        </mxCell>
        <mxCell id="5eZM8RQ2rSXLFRQFqwjH-7" style="edgeStyle=orthogonalEdgeStyle;rounded=0;orthogonalLoop=1;jettySize=auto;html=1;" edge="1" parent="1" source="5eZM8RQ2rSXLFRQFqwjH-2" target="5eZM8RQ2rSXLFRQFqwjH-4">
          <mxGeometry relative="1" as="geometry" />
        </mxCell>
        <object label="Possible?" label_de="Möglich?" label_jp="可能か?" label_es="¿Posible?" id="5eZM8RQ2rSXLFRQFqwjH-2">
          <mxCell style="rhombus;whiteSpace=wrap;html=1;rounded=1;fillColor=#fff2cc;strokeColor=#d6b656;" vertex="1" parent="1">
            <mxGeometry x="370" y="600" width="80" height="80" as="geometry" />
          </mxCell>
        </object>
        <object label="Translate it" label_de="Übersetzen Sie es" label_jp="翻訳します" label_es="Tradúcelo" id="5eZM8RQ2rSXLFRQFqwjH-3">
          <mxCell style="rounded=1;whiteSpace=wrap;html=1;fillColor=#d5e8d4;strokeColor=#82b366;" vertex="1" parent="1">
            <mxGeometry x="520" y="610" width="120" height="60" as="geometry" />
          </mxCell>
        </object>
        <object label="Stop" label_de="Stopp" label_jp="ストップ" label_es="Para" id="5eZM8RQ2rSXLFRQFqwjH-4">
          <mxCell style="rounded=1;whiteSpace=wrap;html=1;fillColor=#f8cecc;strokeColor=#b85450;" vertex="1" parent="1">
            <mxGeometry x="350" y="740" width="120" height="60" as="geometry" />
          </mxCell>
        </object>
      </root>
    </mxGraphModel>
  </diagram>
</mxfile>
